<svg xmlns="http://www.w3.org/2000/svg" viewBox="0 0 512 512" width="100%" height="100%">
  <defs>
    <linearGradient id="appleBg" x1="0%" y1="0%" x2="100%" y2="100%">
      <stop offset="0%" stop-color="#2f74ff" />
      <stop offset="100%" stop-color="#0c2596" />
    </linearGradient>
    
    <filter id="dropShadow" x="-10%" y="-10%" width="120%" height="120%">
      <feDropShadow dx="0" dy="8" stdDeviation="12" flood-color="#000" flood-opacity="0.3" />
    </filter>
  </defs>


  <rect width="512" height="512" rx="112" fill="url(#appleBg)" />

  <g transform="translate(46, 46) scale(0.82)" filter="url(#dropShadow)">
    <g fill="none" stroke="#ffffff" stroke-width="24" stroke-linecap="round" stroke-linejoin="round">
      
      <circle cx="256" cy="256" r="200" stroke-dasharray="12 12" opacity="0.25" />
      
      <circle cx="256" cy="256" r="200" opacity="0.6" />
      
      <circle cx="256" cy="56" r="14" fill="#ffffff" />
      <circle cx="456" cy="256" r="14" fill="#ffffff" />
      <circle cx="256" cy="456" r="14" fill="#ffffff" />
      <circle cx="56" cy="256" r="14" fill="#ffffff" />

      <path d="M 180,140 
               L 360,140 
               M 180,240 
               L 300,240 
               M 180,140 
               L 180,380 
               C 180,400 200,410 220,390 
               L 340,270 
               C 380,230 380,170 340,130" 
            stroke-width="28" />
    </g>
  </g>
</svg>
